<?xml version="1.0" encoding="UTF-8"?>
<!DOCTYPE svg PUBLIC "-//W3C//DTD SVG 1.1//EN" "http://www.w3.org/Graphics/SVG/1.1/DTD/svg11.dtd">
<svg xmlns="http://www.w3.org/2000/svg" version="1.1" width="169px" height="170px" style="shape-rendering:geometricPrecision; text-rendering:geometricPrecision; image-rendering:optimizeQuality; fill-rule:evenodd; clip-rule:evenodd" xmlns:xlink="http://www.w3.org/1999/xlink">
<g><path style="opacity:0.017" fill="#fefffe" d="M 73.5,-0.5 C 74.5,-0.5 75.5,-0.5 76.5,-0.5C 75.4863,0.673734 74.153,1.3404 72.5,1.5C 72.8333,0.833333 73.1667,0.166667 73.5,-0.5 Z"/></g>
<g><path style="opacity:0.024" fill="#ac9ada" d="M 71.5,2.5 C 70.609,3.10978 69.609,3.44312 68.5,3.5C 69.221,1.61818 70.221,1.28485 71.5,2.5 Z"/></g>
<g><path style="opacity:0.999" fill="#00069b" d="M 76.5,-0.5 C 81.1667,-0.5 85.8333,-0.5 90.5,-0.5C 97.9302,2.90664 104.597,7.57331 110.5,13.5C 112.167,15.8333 114.167,17.8333 116.5,19.5C 128.167,31.8333 140.167,43.8333 152.5,55.5C 154.833,58.5 157.5,61.1667 160.5,63.5C 160.833,64.1667 161.167,64.8333 161.5,65.5C 151.418,66.9168 141.418,66.2501 131.5,63.5C 131.802,66.0593 131.468,68.3926 130.5,70.5C 130.5,66.8333 130.5,63.1667 130.5,59.5C 123.167,59.5 115.833,59.5 108.5,59.5C 90.3434,55.4228 72.3434,50.2562 54.5,44C 49.1467,41.9641 44.3134,39.1308 40,35.5C 39.5172,34.552 39.3505,33.552 39.5,32.5C 48.8604,22.4729 58.5271,12.8063 68.5,3.5C 69.609,3.44312 70.609,3.10978 71.5,2.5C 72.1667,2.5 72.5,2.16667 72.5,1.5C 74.153,1.3404 75.4863,0.673734 76.5,-0.5 Z"/></g>
<g><path style="opacity:0.008" fill="#fefffe" d="M 3.5,12.5 C 5.33702,12.6395 5.67036,13.3061 4.5,14.5C 3.70245,14.0431 3.36912,13.3764 3.5,12.5 Z"/></g>
<g><path style="opacity:0.006" fill="#fefffe" d="M 110.5,13.5 C 113.5,14.5 115.5,16.5 116.5,19.5C 114.167,17.8333 112.167,15.8333 110.5,13.5 Z"/></g>
<g><path style="opacity:0.004" fill="#fefffe" d="M 22.5,22.5 C 23.8333,23.1667 23.8333,23.1667 22.5,22.5 Z"/></g>
<g><path style="opacity:0.007" fill="#fefffe" d="M 22.5,23.5 C 22.5852,24.9953 21.9185,25.9953 20.5,26.5C 19.3606,24.6043 20.0272,23.6043 22.5,23.5 Z"/></g>
<g><path style="opacity:1" fill="#0f18fa" d="M 39.5,32.5 C 39.3505,33.552 39.5172,34.552 40,35.5C 44.3134,39.1308 49.1467,41.9641 54.5,44C 72.3434,50.2562 90.3434,55.4228 108.5,59.5C 101.5,59.5 94.5,59.5 87.5,59.5C 87.5,63.1667 87.5,66.8333 87.5,70.5C 101.833,70.5 116.167,70.5 130.5,70.5C 131.468,68.3926 131.802,66.0593 131.5,63.5C 141.418,66.2501 151.418,66.9168 161.5,65.5C 162.167,65.8333 162.833,66.1667 163.5,66.5C 165.175,69.8772 166.842,73.2105 168.5,76.5C 168.5,81.5 168.5,86.5 168.5,91.5C 166.408,97.601 162.741,102.601 157.5,106.5C 148.528,107.347 139.528,107.68 130.5,107.5C 130.5,104.5 130.5,101.5 130.5,98.5C 116.167,98.5 101.833,98.5 87.5,98.5C 86.8485,99.0906 86.1818,99.7573 85.5,100.5C 84.2638,99.7542 82.9305,99.4208 81.5,99.5C 75.9746,86.2815 70.3079,73.1148 64.5,60C 61.5706,59.2228 58.7372,59.3895 56,60.5C 52.1517,69.5258 48.3184,78.5258 44.5,87.5C 30.8442,82.5908 18.6775,75.2575 8,65.5C 7.70031,63.9343 8.20031,62.601 9.5,61.5C 10.8333,60.8333 11.8333,59.8333 12.5,58.5C 21.8778,49.441 30.8778,40.7743 39.5,32.5 Z"/></g>
<g><path style="opacity:0.004" fill="#fefffe" d="M 152.5,54.5 C 153.833,55.1667 153.833,55.1667 152.5,54.5 Z"/></g>
<g><path style="opacity:0.004" fill="#fefffe" d="M 12.5,58.5 C 11.8333,57.1667 11.8333,57.1667 12.5,58.5 Z"/></g>
<g><path style="opacity:1" fill="#f8f9fe" d="M 81.5,99.5 C 83.302,102.574 84.302,105.908 84.5,109.5C 81.4281,109.817 78.4281,109.484 75.5,108.5C 73.4778,104.064 71.4778,99.7311 69.5,95.5C 67.0437,88.5874 64.0437,81.9207 60.5,75.5C 57.6034,80.1666 55.2701,85.1666 53.5,90.5C 50.6626,96.3151 47.9959,102.315 45.5,108.5C 42.1667,109.833 38.8333,109.833 35.5,108.5C 38.2395,101.358 41.2395,94.3581 44.5,87.5C 48.3184,78.5258 52.1517,69.5258 56,60.5C 58.7372,59.3895 61.5706,59.2228 64.5,60C 70.3079,73.1148 75.9746,86.2815 81.5,99.5 Z"/></g>
<g><path style="opacity:1" fill="#fcfcfd" d="M 108.5,59.5 C 115.833,59.5 123.167,59.5 130.5,59.5C 130.5,63.1667 130.5,66.8333 130.5,70.5C 116.167,70.5 101.833,70.5 87.5,70.5C 87.5,66.8333 87.5,63.1667 87.5,59.5C 94.5,59.5 101.5,59.5 108.5,59.5 Z"/></g>
<g><path style="opacity:0.004" fill="#fefffe" d="M 160.5,63.5 C 160.511,60.9991 161.178,60.8324 162.5,63C 161.906,63.4643 161.239,63.631 160.5,63.5 Z"/></g>
<g><path style="opacity:0.005" fill="#fefffe" d="M 163.5,66.5 C 163.511,63.9991 164.178,63.8324 165.5,66C 164.906,66.4643 164.239,66.631 163.5,66.5 Z"/></g>
<g><path style="opacity:0.998" fill="#6eb6ff" d="M 9.5,61.5 C 8.20031,62.601 7.70031,63.9343 8,65.5C 18.6775,75.2575 30.8442,82.5908 44.5,87.5C 41.2395,94.3581 38.2395,101.358 35.5,108.5C 38.8333,109.833 42.1667,109.833 45.5,108.5C 47.9959,102.315 50.6626,96.3151 53.5,90.5C 56.6517,92.2783 59.985,93.7783 63.5,95C 65.433,95.2511 67.2663,95.7511 69,96.5C 69.3988,96.2716 69.5654,95.9382 69.5,95.5C 71.4778,99.7311 73.4778,104.064 75.5,108.5C 78.4281,109.484 81.4281,109.817 84.5,109.5C 84.302,105.908 83.302,102.574 81.5,99.5C 82.9305,99.4208 84.2638,99.7542 85.5,100.5C 86.1818,99.7573 86.8485,99.0906 87.5,98.5C 87.5,102.167 87.5,105.833 87.5,109.5C 102.206,110.15 116.539,109.483 130.5,107.5C 139.528,107.68 148.528,107.347 157.5,106.5C 147.779,116.888 138.113,126.554 128.5,135.5C 89.5137,142.337 53.1804,135.337 19.5,114.5C 13.7443,109.518 8.24433,104.185 3,98.5C 1.78739,96.0748 0.620727,93.7415 -0.5,91.5C -0.5,86.5 -0.5,81.5 -0.5,76.5C 0.957429,72.9315 2.95743,69.5982 5.5,66.5C 5.29069,65.914 4.95735,65.414 4.5,65C 6,63.5 7.5,62 9,60.5C 9.39877,60.7284 9.56544,61.0618 9.5,61.5 Z"/></g>
<g><path style="opacity:1" fill="#fefefe" d="M 90.5,79.5 C 102.5,79.5 114.5,79.5 126.5,79.5C 126.5,82.8333 126.5,86.1667 126.5,89.5C 114.5,89.5 102.5,89.5 90.5,89.5C 90.5,86.1667 90.5,82.8333 90.5,79.5 Z"/></g>
<g><path style="opacity:1" fill="#111ff8" d="M 69.5,95.5 C 69.5654,95.9382 69.3988,96.2716 69,96.5C 67.2663,95.7511 65.433,95.2511 63.5,95C 59.985,93.7783 56.6517,92.2783 53.5,90.5C 55.2701,85.1666 57.6034,80.1666 60.5,75.5C 64.0437,81.9207 67.0437,88.5874 69.5,95.5 Z"/></g>
<g><path style="opacity:1" fill="#c1cafe" d="M 90.5,79.5 C 102.655,78.5048 114.989,78.1714 127.5,78.5C 127.5,82.5 127.5,86.5 127.5,90.5C 114.989,90.8286 102.655,90.4952 90.5,89.5C 102.5,89.5 114.5,89.5 126.5,89.5C 126.5,86.1667 126.5,82.8333 126.5,79.5C 114.5,79.5 102.5,79.5 90.5,79.5 Z"/></g>
<g><path style="opacity:1" fill="#fdfefe" d="M 87.5,98.5 C 101.833,98.5 116.167,98.5 130.5,98.5C 130.5,101.5 130.5,104.5 130.5,107.5C 116.539,109.483 102.206,110.15 87.5,109.5C 87.5,105.833 87.5,102.167 87.5,98.5 Z"/></g>
<g><path style="opacity:0.983" fill="#d4f6ff" d="M 19.5,114.5 C 53.1804,135.337 89.5137,142.337 128.5,135.5C 119.854,144.146 111.188,152.812 102.5,161.5C 99.3654,164.497 95.6987,166.664 91.5,168C 81.4017,170.151 72.735,168.151 65.5,162C 59.1667,155.667 52.8333,149.333 46.5,143C 45.552,142.517 44.552,142.351 43.5,142.5C 43.6495,141.448 43.4828,140.448 43,139.5C 34.518,131.526 26.6847,123.193 19.5,114.5 Z"/></g>
</svg>
